<svg width="20" height="20" viewBox="0 0 20 20" fill="none" xmlns="http://www.w3.org/2000/svg">
<g id="cart-plus">
<path id="Icon" d="M17.5 4.16667L15.8333 10H6.14726M16.6667 13.3333H6.66667L5 2.5H2.5M13.3333 4.58333H11.25M11.25 4.58333H9.16667M11.25 4.58333V6.66667M11.25 4.58333V2.5M7.5 16.6667C7.5 17.1269 7.1269 17.5 6.66667 17.5C6.20643 17.5 5.83333 17.1269 5.83333 16.6667C5.83333 16.2064 6.20643 15.8333 6.66667 15.8333C7.1269 15.8333 7.5 16.2064 7.5 16.6667ZM16.6667 16.6667C16.6667 17.1269 16.2936 17.5 15.8333 17.5C15.3731 17.5 15 17.1269 15 16.6667C15 16.2064 15.3731 15.8333 15.8333 15.8333C16.2936 15.8333 16.6667 16.2064 16.6667 16.6667Z" stroke="white" stroke-width="1.4" stroke-linecap="round" stroke-linejoin="round"/>
</g>
</svg>
