<svg width="20" height="20" viewBox="0 0 20 20" fill="none" xmlns="http://www.w3.org/2000/svg">
<g id="fa6-solid:thumbs-up">
<path id="Vector" d="M11.7929 3.02937C12.6054 3.19186 13.1334 3.98241 12.971 4.79484L12.8991 5.15106C12.7335 5.98536 12.4273 6.77904 11.9992 7.50085H16.4988C17.3268 7.50085 17.9987 8.17266 17.9987 9.00071C17.9987 9.57879 17.6706 10.0819 17.1894 10.3318C17.53 10.6068 17.7487 11.0287 17.7487 11.5005C17.7487 12.2317 17.2237 12.841 16.5332 12.9722C16.6706 13.2003 16.7488 13.4659 16.7488 13.7503C16.7488 14.4159 16.3144 14.9814 15.7145 15.1752C15.7364 15.2783 15.7488 15.3876 15.7488 15.5001C15.7488 16.3282 15.077 17 14.249 17H11.2024C10.6087 17 10.0306 16.825 9.53687 16.4969L8.33384 15.6939C7.49954 15.1377 6.99958 14.2002 6.99958 13.1972V9.72252C6.99958 8.81011 7.41517 7.95081 8.12449 7.37898L8.35572 7.19462C9.18377 6.53218 9.74935 5.60102 9.95558 4.56361L10.0275 4.20739C10.1899 3.39496 10.9805 2.86689 11.7929 3.02937ZM2.99992 8.0008H4.99975C5.55283 8.0008 5.99967 8.44764 5.99967 9.00071V16.0001C5.99967 16.5532 5.55283 17 4.99975 17H2.99992C2.44684 17 2 16.5532 2 16.0001V9.00071C2 8.44764 2.44684 8.0008 2.99992 8.0008Z" fill="white"/>
</g>
</svg>
