<svg width="20" height="20" viewBox="0 0 20 20" fill="none" xmlns="http://www.w3.org/2000/svg">
<g id="Frame" clip-path="url(#clip0_381_622)">
<path id="Vector" d="M19.3738 10.408C19.3738 15.1964 15.8656 19.1654 11.2793 19.885V13.1817H13.5147L13.9397 10.408H11.2793V8.6083C11.2793 7.85011 11.6503 7.10946 12.8429 7.10946H14.053V4.74854C14.053 4.74854 12.9548 4.56101 11.9053 4.56101C9.71432 4.56101 8.28158 5.88853 8.28158 8.29396V10.408H5.84512V13.1817H8.28158V19.885C3.69522 19.1654 0.187012 15.1964 0.187012 10.408C0.187012 5.1097 4.48213 0.814575 9.78043 0.814575C15.0787 0.814575 19.3738 5.1097 19.3738 10.408ZM8.28158 19.8854C8.76995 19.9623 9.27047 20.0014 9.78043 20.0014C9.27054 20.0014 8.76995 19.9616 8.28158 19.885V19.8854ZM11.2793 19.8854V19.885C11.204 19.8968 11.1286 19.9077 11.053 19.9178C11.1285 19.9078 11.204 19.897 11.2793 19.8854ZM11.053 19.9178C10.6367 19.9729 10.2119 20.0014 9.78043 20.0014C10.2119 20.0014 10.6367 19.9724 11.053 19.9178Z" fill="#08415C"/>
</g>
<defs>
<clipPath id="clip0_381_622">
<rect width="19.1868" height="19.1868" fill="white" transform="translate(0.187012 0.81311)"/>
</clipPath>
</defs>
</svg>
