<svg width="24" height="24" viewBox="0 0 24 24" fill="none" xmlns="http://www.w3.org/2000/svg">
<g id="Heart">
<path id="Vector" d="M22.9531 8.8125C22.9531 15.375 13.2228 20.6869 12.8084 20.9062C12.6992 20.965 12.5771 20.9958 12.4531 20.9958C12.3291 20.9958 12.207 20.965 12.0978 20.9062C11.6834 20.6869 1.95312 15.375 1.95312 8.8125C1.95486 7.27146 2.56781 5.79404 3.65749 4.70436C4.74716 3.61468 6.22459 3.00174 7.76562 3C9.70156 3 11.3966 3.8325 12.4531 5.23969C13.5097 3.8325 15.2047 3 17.1406 3C18.6817 3.00174 20.1591 3.61468 21.2488 4.70436C22.3384 5.79404 22.9514 7.27146 22.9531 8.8125Z" fill="#54457F"/>
</g>
</svg>
