<svg width="16" height="16" viewBox="0 0 16 16" fill="none" xmlns="http://www.w3.org/2000/svg">
<g id="filter">
<path id="Icon" d="M2 3.06667C2 2.6933 2 2.50661 2.07266 2.36401C2.13658 2.23856 2.23856 2.13658 2.36401 2.07266C2.50661 2 2.6933 2 3.06667 2H12.9333C13.3067 2 13.4934 2 13.636 2.07266C13.7614 2.13658 13.8634 2.23856 13.9273 2.36401C14 2.50661 14 2.6933 14 3.06667V4.22484C14 4.3879 14 4.46943 13.9816 4.54615C13.9652 4.61418 13.9383 4.67921 13.9018 4.73886C13.8605 4.80613 13.8029 4.86379 13.6876 4.97909L9.64575 9.02091C9.53045 9.13622 9.4728 9.19387 9.43157 9.26114C9.39502 9.32079 9.36808 9.38582 9.35175 9.45385C9.33333 9.53057 9.33333 9.6121 9.33333 9.77516V11.3333L6.66667 14V9.77516C6.66667 9.6121 6.66667 9.53057 6.64825 9.45385C6.63192 9.38582 6.60498 9.32079 6.56843 9.26114C6.5272 9.19387 6.46955 9.13622 6.35425 9.02091L2.31242 4.97909C2.19712 4.86378 2.13947 4.80613 2.09824 4.73886C2.06169 4.67921 2.03475 4.61418 2.01842 4.54615C2 4.46943 2 4.3879 2 4.22484V3.06667Z" stroke="#98A2B3" stroke-width="1.33333" stroke-linecap="round" stroke-linejoin="round"/>
</g>
</svg>
