<svg width="20" height="20" viewBox="0 0 20 20" fill="none" xmlns="http://www.w3.org/2000/svg">
<g id="Frame" clip-path="url(#clip0_381_617)">
<path id="Vector" d="M9.59334 2.66819C12.1152 2.66819 12.4114 2.67958 13.4085 2.72455C14.3307 2.76592 14.8289 2.91941 15.1623 3.05072C15.6048 3.22281 15.919 3.42547 16.2494 3.75524C16.5797 4.08501 16.7854 4.3998 16.9539 4.84229C17.081 5.17567 17.2387 5.67393 17.2801 6.59609C17.325 7.59261 17.3364 7.88881 17.3364 10.4113C17.3364 12.9337 17.325 13.2293 17.2801 14.2265C17.2387 15.1486 17.0852 15.6469 16.9539 15.9803C16.7812 16.4228 16.5791 16.7369 16.2494 17.0673C15.9196 17.3977 15.6048 17.6033 15.1623 17.7718C14.8289 17.8989 14.3307 18.0566 13.4085 18.098C12.4114 18.143 12.1158 18.1544 9.59334 18.1544C7.07088 18.1544 6.77528 18.143 5.77816 18.098C4.8566 18.0566 4.35774 17.9031 4.02437 17.7718C3.58247 17.5991 3.26709 17.3971 2.93732 17.0673C2.60754 16.7375 2.40129 16.4228 2.2328 15.9803C2.10569 15.6469 1.948 15.1486 1.90663 14.2265C1.86166 13.2293 1.85026 12.9337 1.85026 10.4113C1.85026 7.88881 1.86166 7.59321 1.90663 6.59609C1.948 5.67453 2.10149 5.17567 2.2328 4.84229C2.40488 4.4004 2.60754 4.08501 2.93732 3.75524C3.26709 3.42547 3.58187 3.21921 4.02437 3.05072C4.35774 2.92361 4.8566 2.76592 5.77816 2.72455C6.77468 2.67598 7.07088 2.66819 9.59334 2.66819ZM9.59334 0.966553C7.0301 0.966553 6.70752 0.977945 5.69962 1.02291C4.69531 1.06788 4.00938 1.22917 3.40979 1.46121C2.78802 1.70105 2.26278 2.02723 1.73814 2.55187C1.2135 3.07651 0.890925 3.60474 0.647492 4.22352C0.415451 4.82311 0.254162 5.50904 0.209193 6.51695C0.164224 7.52126 0.152832 7.84384 0.152832 10.4071C0.152832 12.9703 0.164224 13.2929 0.209193 14.3008C0.254162 15.3051 0.415451 15.991 0.647492 16.5942C0.887327 17.2166 1.2135 17.7413 1.73814 18.2659C2.26278 18.7905 2.79102 19.1131 3.40979 19.3565C4.00938 19.5886 4.69531 19.7499 5.70322 19.7948C6.71112 19.8398 7.0301 19.8512 9.59694 19.8512C12.1638 19.8512 12.4828 19.8398 13.4907 19.7948C14.495 19.7499 15.1809 19.5886 15.7841 19.3565C16.4065 19.1167 16.9311 18.7905 17.4557 18.2659C17.9804 17.7413 18.303 17.213 18.5464 16.5942C18.7784 15.9946 18.9397 15.3087 18.9847 14.3008C19.0297 13.2929 19.041 12.9745 19.041 10.4071C19.041 7.83964 19.0297 7.52126 18.9847 6.51335C18.9397 5.50904 18.7784 4.82311 18.5464 4.21992C18.3065 3.59755 17.9804 3.07291 17.4557 2.54827C16.9311 2.02363 16.4029 1.70105 15.7841 1.45762C15.1845 1.22558 14.4986 1.06429 13.4907 1.01932C12.4786 0.977945 12.1566 0.966553 9.59334 0.966553Z" fill="#08415C"/>
<path id="Vector_2" d="M9.5934 5.55702C8.31666 5.57122 7.09703 6.08837 6.19922 6.99622C5.3014 7.90407 4.79785 9.12938 4.79785 10.4062C4.79785 11.683 5.3014 12.9083 6.19922 13.8162C7.09703 14.724 8.31666 15.2412 9.5934 15.2554C12.2694 15.2554 14.4423 13.0819 14.4423 10.4059C14.4423 7.72993 12.2688 5.55642 9.5928 5.55642L9.5934 5.55702ZM9.5934 13.5543C8.75854 13.5543 7.95787 13.2227 7.36754 12.6324C6.77721 12.042 6.44556 11.2414 6.44556 10.4065C6.44556 9.57164 6.77721 8.77097 7.36754 8.18064C7.95787 7.5903 8.75854 7.25866 9.5934 7.25866C10.4283 7.25866 11.2289 7.5903 11.8193 8.18064C12.4096 8.77097 12.7412 9.57164 12.7412 10.4065C12.7412 11.2414 12.4096 12.042 11.8193 12.6324C11.2289 13.2227 10.4283 13.5543 9.5934 13.5543ZM15.7656 5.36635C15.7656 5.51493 15.7364 5.66208 15.6797 5.79938C15.6229 5.93668 15.5396 6.06145 15.4346 6.16657C15.3296 6.27169 15.2049 6.35509 15.0677 6.41202C14.9304 6.46896 14.7833 6.4983 14.6347 6.49838C14.4861 6.49846 14.339 6.46927 14.2017 6.41248C14.0644 6.3557 13.9396 6.27242 13.8345 6.16742C13.7294 6.06241 13.646 5.93773 13.5891 5.80049C13.5321 5.66324 13.5028 5.51613 13.5027 5.36755C13.5025 5.06748 13.6214 4.7796 13.8335 4.56725C14.0455 4.3549 14.3332 4.23547 14.6332 4.23523C14.9333 4.23499 15.2212 4.35397 15.4335 4.56598C15.6459 4.778 15.7653 5.06628 15.7656 5.36635Z" fill="#08415C"/>
</g>
<defs>
<clipPath id="clip0_381_617">
<rect width="19.1868" height="19.1868" fill="white" transform="translate(0 0.81311)"/>
</clipPath>
</defs>
</svg>
