<svg width="20" height="20" viewBox="0 0 20 20" fill="none" xmlns="http://www.w3.org/2000/svg">
<g id="Frame" clip-path="url(#clip0_381_638)">
<path id="Vector" d="M3.98127 3.61118C3.98127 4.71522 3.09388 5.60981 1.99863 5.60981C0.90338 5.60981 0.015989 4.71522 0.015989 3.61118C0.015989 2.50793 0.90338 1.61255 1.99863 1.61255C3.09388 1.61255 3.98127 2.50793 3.98127 3.61118ZM3.99726 7.20871H0V19.9999H3.99726V7.20871ZM10.3785 7.20871H6.4068V19.9999H10.3793V13.2853C10.3793 9.5519 15.1992 9.24651 15.1992 13.2853V19.9999H19.1868V11.9007C19.1868 5.60101 12.0541 5.83046 10.3785 8.93153V7.20871Z" fill="#08415C"/>
</g>
<defs>
<clipPath id="clip0_381_638">
<rect width="19.1868" height="19.1868" fill="white" transform="translate(0 0.81311)"/>
</clipPath>
</defs>
</svg>
