<svg width="25" height="25" viewBox="0 0 25 25" fill="none" xmlns="http://www.w3.org/2000/svg">
<g id="List">
<path id="Vector" d="M21.0929 12.978C21.0929 13.1769 21.0139 13.3677 20.8732 13.5084C20.7326 13.649 20.5418 13.728 20.3429 13.728H3.8429C3.64398 13.728 3.45322 13.649 3.31257 13.5084C3.17191 13.3677 3.0929 13.1769 3.0929 12.978C3.0929 12.7791 3.17191 12.5883 3.31257 12.4477C3.45322 12.307 3.64398 12.228 3.8429 12.228H20.3429C20.5418 12.228 20.7326 12.307 20.8732 12.4477C21.0139 12.5883 21.0929 12.7791 21.0929 12.978ZM3.8429 7.72803H20.3429C20.5418 7.72803 20.7326 7.64901 20.8732 7.50836C21.0139 7.3677 21.0929 7.17694 21.0929 6.97803C21.0929 6.77911 21.0139 6.58835 20.8732 6.4477C20.7326 6.30705 20.5418 6.22803 20.3429 6.22803H3.8429C3.64398 6.22803 3.45322 6.30705 3.31257 6.4477C3.17191 6.58835 3.0929 6.77911 3.0929 6.97803C3.0929 7.17694 3.17191 7.3677 3.31257 7.50836C3.45322 7.64901 3.64398 7.72803 3.8429 7.72803ZM20.3429 18.228H3.8429C3.64398 18.228 3.45322 18.307 3.31257 18.4477C3.17191 18.5883 3.0929 18.7791 3.0929 18.978C3.0929 19.1769 3.17191 19.3677 3.31257 19.5084C3.45322 19.649 3.64398 19.728 3.8429 19.728H20.3429C20.5418 19.728 20.7326 19.649 20.8732 19.5084C21.0139 19.3677 21.0929 19.1769 21.0929 18.978C21.0929 18.7791 21.0139 18.5883 20.8732 18.4477C20.7326 18.307 20.5418 18.228 20.3429 18.228Z" fill="black"/>
</g>
</svg>
