<svg width="20" height="20" viewBox="0 0 20 20" fill="none" xmlns="http://www.w3.org/2000/svg">
<g id="mdi:fire">
<path id="Vector" d="M14.8565 9.37796C14.6776 9.14462 14.4599 8.94239 14.2576 8.74016C13.7365 8.27348 13.1454 7.93903 12.6476 7.44902C11.4886 6.31343 11.232 4.43893 11.9709 3C11.232 3.17889 10.5864 3.58335 10.0342 4.0267C8.01964 5.64452 7.22628 8.49905 8.1752 10.9491C8.20631 11.0269 8.23742 11.1047 8.23742 11.2058C8.23742 11.3769 8.12075 11.5325 7.96519 11.5947C7.7863 11.6725 7.59962 11.6258 7.45184 11.5014C7.40743 11.4646 7.37047 11.4198 7.34295 11.3691C6.46403 10.2569 6.32402 8.66238 6.91515 7.38679C5.61622 8.4446 4.90842 10.2335 5.00953 11.9214C5.0562 12.3103 5.10287 12.6992 5.2351 13.0881C5.34399 13.5547 5.554 14.0214 5.78734 14.4337C6.62737 15.7793 8.08186 16.7437 9.64525 16.9382C11.3097 17.1482 13.0909 16.8448 14.3665 15.6937C15.7899 14.4025 16.2877 12.3336 15.5566 10.5602L15.4554 10.358C15.2921 10.0002 14.8565 9.37796 14.8565 9.37796ZM12.3987 14.2781C12.1809 14.4648 11.8231 14.667 11.5431 14.7448C10.6719 15.0559 9.80081 14.6203 9.28746 14.107C10.213 13.8892 10.7653 13.2047 10.9286 12.5125C11.0609 11.8903 10.812 11.3769 10.7108 10.778C10.6175 10.2024 10.6331 9.71241 10.8431 9.17573C10.9908 9.4713 11.1464 9.76686 11.3331 10.0002C11.932 10.778 12.8731 11.1202 13.0754 12.178C13.1065 12.2869 13.122 12.3958 13.122 12.5125C13.1454 13.1503 12.8654 13.8503 12.3987 14.2781Z" fill="white"/>
</g>
</svg>
