<svg width="20" height="20" viewBox="0 0 20 20" fill="none" xmlns="http://www.w3.org/2000/svg">
<g id="Frame" clip-path="url(#clip0_381_634)">
<path id="Vector" d="M0.74707 10.4067C0.74707 14.335 3.1093 17.7098 6.48955 19.1936C6.46257 18.5237 6.48476 17.7195 6.65654 16.9906C6.84099 16.2118 7.89094 11.7631 7.89094 11.7631C7.89094 11.7631 7.58448 11.1505 7.58448 10.2452C7.58448 8.82354 8.40846 7.76175 9.43466 7.76175C10.3073 7.76175 10.7289 8.41717 10.7289 9.20203C10.7289 10.0792 10.1694 11.3914 9.88165 12.6066C9.64129 13.6243 10.3919 14.4544 11.3958 14.4544C13.2135 14.4544 14.4377 12.1198 14.4377 9.35373C14.4377 7.25112 13.0215 5.67735 10.4458 5.67735C7.53569 5.67735 5.72275 7.84756 5.72275 10.2717C5.72275 11.1075 5.96919 11.6969 6.35517 12.1534C6.53265 12.363 6.55731 12.4473 6.49308 12.688C6.44706 12.8645 6.34138 13.2895 6.29761 13.4579C6.23375 13.7009 6.03686 13.7878 5.81727 13.6981C4.47689 13.1509 3.85264 11.683 3.85264 10.0329C3.85264 7.30771 6.15101 4.03995 10.7091 4.03995C14.3718 4.03995 16.7825 6.69043 16.7825 9.53555C16.7825 13.2989 14.6903 16.1105 11.6061 16.1105C10.5704 16.1105 9.59617 15.5506 9.26242 14.9147C9.26242 14.9147 8.70548 17.1251 8.58751 17.5519C8.3841 18.2916 7.98598 19.0309 7.62195 19.6071C8.50466 19.8681 9.42037 20.0006 10.3409 20.0005C15.6385 20.0005 19.934 15.7052 19.934 10.4067C19.934 5.10834 15.6385 0.81311 10.3409 0.81311C5.04267 0.81311 0.74707 5.10834 0.74707 10.4067Z" fill="#08415C"/>
</g>
<defs>
<clipPath id="clip0_381_634">
<rect width="19.1868" height="19.1868" fill="white" transform="translate(0.74707 0.81311)"/>
</clipPath>
</defs>
</svg>
