<svg width="25" height="24" viewBox="0 0 25 24" fill="none" xmlns="http://www.w3.org/2000/svg">
<g id="ShoppingBag">
<path id="Vector" d="M20.3516 3.75H3.85156C3.45374 3.75 3.07221 3.90804 2.7909 4.18934C2.5096 4.47064 2.35156 4.85218 2.35156 5.25V18.75C2.35156 19.1478 2.5096 19.5294 2.7909 19.8107C3.07221 20.092 3.45374 20.25 3.85156 20.25H20.3516C20.7494 20.25 21.1309 20.092 21.4122 19.8107C21.6935 19.5294 21.8516 19.1478 21.8516 18.75V5.25C21.8516 4.85218 21.6935 4.47064 21.4122 4.18934C21.1309 3.90804 20.7494 3.75 20.3516 3.75ZM20.3516 18.75H3.85156V5.25H20.3516V18.75ZM16.6016 8.25C16.6016 9.44347 16.1275 10.5881 15.2835 11.432C14.4396 12.2759 13.295 12.75 12.1016 12.75C10.9081 12.75 9.7635 12.2759 8.91958 11.432C8.07567 10.5881 7.60156 9.44347 7.60156 8.25C7.60156 8.05109 7.68058 7.86032 7.82123 7.71967C7.96188 7.57902 8.15265 7.5 8.35156 7.5C8.55047 7.5 8.74124 7.57902 8.88189 7.71967C9.02254 7.86032 9.10156 8.05109 9.10156 8.25C9.10156 9.04565 9.41763 9.80871 9.98024 10.3713C10.5429 10.9339 11.3059 11.25 12.1016 11.25C12.8972 11.25 13.6603 10.9339 14.2229 10.3713C14.7855 9.80871 15.1016 9.04565 15.1016 8.25C15.1016 8.05109 15.1806 7.86032 15.3212 7.71967C15.4619 7.57902 15.6526 7.5 15.8516 7.5C16.0505 7.5 16.2412 7.57902 16.3819 7.71967C16.5225 7.86032 16.6016 8.05109 16.6016 8.25Z" fill="white"/>
</g>
</svg>
