<svg width="20" height="20" viewBox="0 0 20 20" fill="none" xmlns="http://www.w3.org/2000/svg">
<g id="Frame" clip-path="url(#clip0_381_630)">
<path id="Vector" d="M19.3161 4.85018C18.7949 5.61925 18.1693 6.27081 17.4394 6.80484C17.4394 6.8568 17.446 6.93835 17.4592 7.04947C17.4724 7.1606 17.479 7.24214 17.479 7.2941C17.479 8.31061 17.3291 9.32711 17.0293 10.3436C16.7295 11.3601 16.2734 12.3311 15.661 13.2564C15.0486 14.1818 14.3221 15.0028 13.4815 15.7195C12.6409 16.4362 11.631 17.0096 10.4518 17.4397C9.2726 17.8699 8.00527 18.0849 6.6498 18.0849C4.53845 18.0849 2.60977 17.5181 0.86377 16.3845C1.22872 16.4105 1.52851 16.4234 1.76315 16.4234C3.52234 16.4234 5.09267 15.8892 6.47412 14.8207C5.65308 14.8076 4.91999 14.5567 4.27483 14.0683C3.62967 13.5798 3.17678 12.951 2.91616 12.182C3.13761 12.2339 3.37864 12.2599 3.63926 12.2599C3.99102 12.2599 4.32339 12.2077 4.63638 12.1034C3.76338 11.9211 3.04008 11.4846 2.46647 10.7939C1.89286 10.1032 1.60606 9.30832 1.60606 8.40934V8.37037C2.10132 8.63099 2.66813 8.77429 3.30649 8.80027C2.79844 8.4613 2.39452 8.01501 2.09472 7.46139C1.79493 6.90777 1.64503 6.31158 1.64503 5.67282C1.64503 5.02126 1.80792 4.3827 2.1337 3.75713C3.08504 4.94312 4.23506 5.87807 5.58373 6.56201C6.9324 7.24594 8.3952 7.62708 9.97212 7.70542C9.88098 7.37964 9.83541 7.09304 9.83541 6.84561C9.83541 5.80313 10.2068 4.91374 10.9494 4.17744C11.6921 3.44115 12.5979 3.073 13.6668 3.073C14.188 3.073 14.6897 3.17733 15.1717 3.38598C15.6538 3.59464 16.0643 3.88784 16.4033 4.26558C17.2635 4.0961 18.065 3.78991 18.8077 3.34701C18.5338 4.2332 17.98 4.93032 17.1462 5.43838C17.9412 5.33405 18.6645 5.13858 19.3161 4.85198V4.85018Z" fill="#08415C"/>
</g>
<defs>
<clipPath id="clip0_381_630">
<rect width="19.1868" height="19.1868" fill="white" transform="translate(0.560547 0.81311)"/>
</clipPath>
</defs>
</svg>
