<svg width="20" height="20" viewBox="0 0 20 20" fill="none" xmlns="http://www.w3.org/2000/svg">
<g id="Frame" clip-path="url(#clip0_381_626)">
<path id="Vector" d="M0.194337 15.7085C0.194337 16.4577 0.441634 17.0948 0.936228 17.6199C1.43082 18.1449 2.03292 18.4071 2.74253 18.4065H16.3981C17.1077 18.4065 17.7098 18.1443 18.2044 17.6199C18.699 17.0954 18.9463 16.4583 18.9463 15.7085V4.84144C18.9463 4.09224 18.6965 3.4478 18.1971 2.90813C17.6976 2.36847 17.0979 2.09863 16.3981 2.09863H2.74253C2.04328 2.09863 1.44361 2.36847 0.943537 2.90813C0.443461 3.4478 0.193728 4.09224 0.194337 4.84144V15.7085ZM7.0148 13.745V6.80489C7.0148 6.73484 7.0349 6.68002 7.0751 6.64043C7.10495 6.63069 7.12992 6.62581 7.15002 6.62581L7.22494 6.64043L13.7603 10.1178C13.8005 10.158 13.8206 10.208 13.8206 10.2677C13.8206 10.3079 13.8005 10.3478 13.7603 10.3874L7.22494 13.8647C7.20484 13.8848 7.18474 13.8949 7.16464 13.8949C7.12444 13.8949 7.09459 13.8848 7.0751 13.8647C7.0349 13.8245 7.0148 13.7846 7.0148 13.745Z" fill="#08415C"/>
</g>
<defs>
<clipPath id="clip0_381_626">
<rect width="19.1868" height="19.1868" fill="white" transform="translate(0.373535 0.81311)"/>
</clipPath>
</defs>
</svg>
